<?xml version="1.0" encoding="UTF-8"?>
<svg width="850" height="520" viewBox="0 0 850 520" xmlns="http://www.w3.org/2000/svg">
  <!-- Background -->
  <rect width="850" height="520" fill="#0f172a" rx="12"/>

  <!-- Title & Subtitle -->
  <text x="425" y="45" font-family="-apple-system, BlinkMacSystemFont, 'Segoe UI', Roboto, sans-serif" font-size="22" font-weight="bold" fill="#f8fafc" text-anchor="middle">Cluster Scalability: 2 to 100 Nodes Convergence</text>
  <text x="425" y="70" font-family="-apple-system, BlinkMacSystemFont, 'Segoe UI', Roboto, sans-serif" font-size="13" fill="#94a3b8" text-anchor="middle">Convergence Latency &amp; Total Gossip Traffic vs. Cluster Node Count</text>

  <!-- Grid Lines -->
  <g stroke="#334155" stroke-dasharray="4" stroke-width="1">
    <line x1="120" y1="120" x2="780" y2="120"/>
    <line x1="120" y1="190" x2="780" y2="190"/>
    <line x1="120" y1="260" x2="780" y2="260"/>
    <line x1="120" y1="330" x2="780" y2="330"/>
    <line x1="120" y1="400" x2="780" y2="400"/>
  </g>

  <!-- Axes -->
  <line x1="120" y1="400" x2="780" y2="400" stroke="#64748b" stroke-width="2"/>
  <line x1="120" y1="100" x2="120" y2="400" stroke="#64748b" stroke-width="2"/>

  <!-- Y-Axis (Left: Convergence Latency ms) -->
  <text x="110" y="125" font-family="monospace" font-size="12" fill="#38bdf8" text-anchor="end">35 ms</text>
  <text x="110" y="195" font-family="monospace" font-size="12" fill="#38bdf8" text-anchor="end">25 ms</text>
  <text x="110" y="265" font-family="monospace" font-size="12" fill="#38bdf8" text-anchor="end">15 ms</text>
  <text x="110" y="335" font-family="monospace" font-size="12" fill="#38bdf8" text-anchor="end">5 ms</text>
  <text x="110" y="405" font-family="monospace" font-size="12" fill="#38bdf8" text-anchor="end">0 ms</text>

  <!-- X-Axis Labels -->
  <text x="160" y="430" font-family="monospace" font-size="12" fill="#cbd5e1" text-anchor="middle">2</text>
  <text x="270" y="430" font-family="monospace" font-size="12" fill="#cbd5e1" text-anchor="middle">5</text>
  <text x="380" y="430" font-family="monospace" font-size="12" fill="#cbd5e1" text-anchor="middle">10</text>
  <text x="500" y="430" font-family="monospace" font-size="12" fill="#cbd5e1" text-anchor="middle">25</text>
  <text x="630" y="430" font-family="monospace" font-size="12" fill="#cbd5e1" text-anchor="middle">50</text>
  <text x="750" y="430" font-family="monospace" font-size="12" fill="#cbd5e1" text-anchor="middle">100</text>

  <text x="450" y="465" font-family="-apple-system, BlinkMacSystemFont, sans-serif" font-size="13" font-weight="600" fill="#94a3b8" text-anchor="middle">Number of Cluster Nodes</text>
  <text x="40" y="250" font-family="-apple-system, BlinkMacSystemFont, sans-serif" font-size="13" font-weight="600" fill="#38bdf8" text-anchor="middle" transform="rotate(-90 40 250)">Convergence Latency (ms)</text>

  <!-- Convergence Latency Line (Cyan)
       2 nodes  -> 1ms  (y=392)
       5 nodes  -> 1ms  (y=392)
       10 nodes -> 2ms  (y=384)
       25 nodes -> 8ms  (y=336)
       50 nodes -> 3ms  (y=376)
       100 nodes-> 29ms (y=168)
  -->
  <polyline points="160,392 270,392 380,384 500,336 630,376 750,168"
            fill="none" stroke="#38bdf8" stroke-width="4"/>

  <circle cx="160" cy="392" r="6" fill="#38bdf8"/>
  <circle cx="270" cy="392" r="6" fill="#38bdf8"/>
  <circle cx="380" cy="384" r="6" fill="#38bdf8"/>
  <circle cx="500" cy="336" r="6" fill="#38bdf8"/>
  <circle cx="630" cy="376" r="6" fill="#38bdf8"/>
  <circle cx="750" cy="168" r="6" fill="#38bdf8"/>
  <text x="750" y="150" font-family="monospace" font-size="11" font-weight="bold" fill="#38bdf8" text-anchor="middle">29 ms</text>

  <!-- Callout box -->
  <rect x="160" y="130" width="380" height="85" fill="#1e293b" rx="8" stroke="#64748b" stroke-width="1"/>
  <text x="180" y="155" font-family="-apple-system, BlinkMacSystemFont, sans-serif" font-size="13" font-weight="bold" fill="#f8fafc">Key Scalability Takeaway</text>
  <text x="180" y="177" font-family="-apple-system, BlinkMacSystemFont, sans-serif" font-size="12" fill="#cbd5e1">• Convergence remains sub-30ms even across 100 concurrent nodes.</text>
  <text x="180" y="197" font-family="-apple-system, BlinkMacSystemFont, sans-serif" font-size="12" fill="#cbd5e1">• Total gossip payload is only 71.6 KB across the entire cluster.</text>
</svg>